<?xml version="1.0" encoding="UTF-8" standalone="no"?><!DOCTYPE svg PUBLIC "-//W3C//DTD SVG 1.1//EN" "http://www.w3.org/Graphics/SVG/1.1/DTD/svg11.dtd"><svg width="100%" height="100%" viewBox="0 0 851 851" version="1.1" xmlns="http://www.w3.org/2000/svg" xmlns:xlink="http://www.w3.org/1999/xlink" xml:space="preserve" xmlns:serif="http://www.serif.com/" style="fill-rule:evenodd;clip-rule:evenodd;stroke-linejoin:round;stroke-miterlimit:1.41421;"><g id="Ñëîé-1" serif:id="Ñëîé 1"><path d="M716.542,147.629c-8.848,-7.142 -20.075,-11.055 -31.637,-11.055c-15.136,0 -29.255,6.633 -38.781,18.367l-1.359,1.704c-3.739,-11.397 -11.395,-21.43 -22.619,-27.895c-7.655,-4.422 -16.327,-6.803 -25.174,-6.803c-17.684,0 -34.357,9.524 -43.367,24.832l-81.638,140.147c-28.237,-40.48 -74.666,-65.313 -125.523,-65.313c-62.586,0 -118.199,37.588 -142.012,95.583c-1.87,4.763 -2.55,9.695 -1.87,14.627c-47.11,26.365 -92.356,98.477 -86.735,153.411c0.336,3.572 0.672,6.974 0.672,9.525c0,73.814 34.867,142.016 94.227,185.385c3.062,27.214 26.19,48.303 54.257,48.303l166.168,0c22.957,0 48.296,-19.559 51.531,-48.303c59.184,-43.369 94.219,-111.571 94.219,-185.385c0,-2.551 0.176,-5.953 0.511,-9.354c2.555,-29.252 -11.393,-63.439 -24.996,-89.629l168.544,-174.163c0.68,-0.679 1.19,-1.359 1.706,-2.041c0.505,-0.511 0.848,-1.019 1.184,-1.531c17.183,-21.26 14.117,-52.722 -7.308,-70.412" style="fill:#f2f2f2;fill-rule:nonzero;"/><path d="M697.999,170.76c-8.84,-7.143 -21.77,-5.953 -28.91,2.891l-173.142,211.58c4.591,3.908 9.017,8.162 13.267,12.586l190.488,-196.782c0.34,-0.511 0.852,-1.02 1.188,-1.361c7.148,-8.844 5.785,-21.77 -2.891,-28.914" style="fill:#b3b3b3;fill-rule:nonzero;"/><path d="M613.812,183.855c0.344,-0.512 0.68,-1.02 1.023,-1.531c5.781,-9.865 2.379,-22.451 -7.485,-28.063c-9.862,-5.781 -22.452,-2.381 -28.234,7.313l-111.062,192.531c4.422,2.041 12.929,6.973 19.046,10.715l126.712,-180.965Z" style="fill:#b3b3b3;fill-rule:nonzero;"/><path d="M346.444,271.614c37.758,0 70.418,20.581 88.445,50.856c9.016,1.187 17.856,3.233 26.359,5.954c-18.534,-45.243 -62.925,-77.387 -114.804,-77.387c-51.699,0 -96.263,32.144 -114.63,77.387c8.505,-2.721 17.177,-4.767 26.192,-5.954c18.204,-30.445 50.856,-50.856 88.438,-50.856" style="fill:#b3b3b3;fill-rule:nonzero;"/><path d="M284.37,321.279c8.848,0.34 17.687,1.363 26.02,3.402c10.378,-7.312 22.621,-11.736 36.054,-11.736c13.61,0 25.86,4.424 36.063,11.736c8.5,-2.039 17.179,-3.062 26.019,-3.402c-15.133,-17.519 -37.079,-28.913 -62.082,-28.913c-24.829,0 -46.933,11.394 -62.074,28.913" style="fill:#b3b3b3;fill-rule:nonzero;"/><path d="M415.155,341.518c-17.173,0 -33.673,3.404 -48.637,9.865c6.973,5.272 13.438,11.225 19.219,17.856c9.356,-2.887 19.219,-4.928 29.418,-4.928c56.301,0 102.051,45.749 102.051,102.046l22.793,0c0,-68.88 -55.957,-124.839 -124.844,-124.839" style="fill:#b3b3b3;fill-rule:nonzero;"/><path d="M415.155,382.678c-5.781,0 -11.563,0.68 -17.173,1.873c4.763,6.801 8.673,14.113 12.079,21.598c1.699,-0.169 3.399,-0.512 5.094,-0.512c33.508,0 60.723,27.215 60.723,60.72l22.961,0c0,-46.091 -37.591,-83.679 -83.684,-83.679" style="fill:#b3b3b3;fill-rule:nonzero;"/><path d="M417.202,425.026c2.378,7.653 3.91,15.646 4.934,23.982c6.968,2.721 11.906,9.522 11.906,17.348l22.785,0c0,-22.278 -17.684,-40.31 -39.625,-41.33" style="fill:#b3b3b3;fill-rule:nonzero;"/><path d="M277.909,341.518c-68.887,0 -125.012,55.959 -125.012,124.839l22.961,0c0,-56.297 45.75,-102.046 102.051,-102.046c56.293,0 102.047,45.749 102.047,102.046l22.789,0c0,-68.88 -55.957,-124.839 -124.836,-124.839" style="fill:#b3b3b3;fill-rule:nonzero;"/><path d="M277.909,382.678c-46.095,0 -83.684,37.588 -83.684,83.679l22.965,0c0,-33.505 27.211,-60.72 60.719,-60.72c33.5,0 60.719,27.215 60.719,60.72l22.788,0c0,-46.091 -37.421,-83.679 -83.507,-83.679" style="fill:#b3b3b3;fill-rule:nonzero;"/><path d="M277.909,424.687c-23.137,0 -41.672,18.709 -41.672,41.67l22.793,0c0,-10.204 8.503,-18.707 18.879,-18.707c10.199,0 18.703,8.502 18.703,18.707l22.793,0c0,-22.962 -18.535,-41.671 -41.496,-41.671" style="fill:#b3b3b3;fill-rule:nonzero;"/><path d="M150.862,451.218c-11.227,9.019 -4.934,28.577 -4.934,43.541c0,71.434 37.585,134.021 93.883,169.57l0,9.526c0,13.945 11.227,25.17 25.171,25.17l166.169,0c9.352,0 22.273,-10.036 22.273,-25.17l0,-9.526c56.301,-35.549 93.887,-98.136 93.887,-169.57c0,-14.964 5.442,-33.504 -4.933,-43.541c-36.055,-35.204 -113.95,-1.699 -195.934,0.172c-77.215,1.869 -158.513,-29.936 -195.582,-0.172" style="fill:#b3b3b3;fill-rule:nonzero;"/></g></svg>